<?xml version="1.0" encoding="UTF-8"?> <svg xmlns="http://www.w3.org/2000/svg" xmlns:xlink="http://www.w3.org/1999/xlink" width="120.488" height="124.796" viewBox="0 0 120.488 124.796"><defs><clipPath id="clip-path"><rect width="120.488" height="124.796" fill="none"></rect></clipPath></defs><g id="Logo" clip-path="url(#clip-path)"><g id="Grupo_26" data-name="Grupo 26"><g id="Grupo_3" data-name="Grupo 3" transform="translate(40.075 50.299)"><g id="Grupo_1" data-name="Grupo 1"><path id="Trazado_1" data-name="Trazado 1" d="M700.167,210.357a.9.9,0,0,1,.9-.9h11.686a.9.9,0,0,1,.9.9V214.7H700.167Zm26.981,4.344H715.161v-4.344a2.406,2.406,0,0,0-2.4-2.4H701.071a2.407,2.407,0,0,0-2.4,2.4V214.7H686.68a2.26,2.26,0,0,0-2.257,2.257v26.973a2.26,2.26,0,0,0,2.257,2.257h40.468a2.26,2.26,0,0,0,2.257-2.257V216.958a2.26,2.26,0,0,0-2.257-2.257" transform="translate(-684.423 -207.954)" fill="#375439"></path></g><g id="Grupo_2" data-name="Grupo 2" transform="translate(11.706 12.282)"><path id="Trazado_2" data-name="Trazado 2" d="M717.7,231.02a10.784,10.784,0,1,1-10.785-10.784A10.784,10.784,0,0,1,717.7,231.02" transform="translate(-696.129 -220.236)" fill="#fff"></path></g></g><g id="Grupo_4" data-name="Grupo 4" transform="translate(55.15 65.636)"><path id="Trazado_3" data-name="Trazado 3" d="M709.378,228.557V223.51h-4.927v5.047H699.4v4.926h5.047v5.047h4.927v-5.047h5.046v-4.926Z" transform="translate(-699.403 -223.51)" fill="#375439"></path></g><g id="Grupo_5" data-name="Grupo 5" transform="translate(19.16 41.582)"><path id="Trazado_4" data-name="Trazado 4" d="M670.43,203.167l-7.747-.263,6.144,4.739-.346.966-9.232-.2.363-1.013,7.959.3-6.336-4.794.325-.946,7.96.3-6.348-4.8.35-.977,7.254,5.721Z" transform="translate(-659.249 -196.481)" fill="#1a1718"></path></g><g id="Grupo_6" data-name="Grupo 6" transform="translate(25.184 33.131)"><path id="Trazado_5" data-name="Trazado 5" d="M676.7,193.067l-3.084-2.308-3.163,4.227,3.085,2.308-.6.8-7.012-5.245.6-.8,3.165,2.368,3.163-4.227-3.165-2.367.6-.8,7.012,5.246Z" transform="translate(-665.932 -187.02)" fill="#1a1718"></path></g><g id="Grupo_7" data-name="Grupo 7" transform="translate(32.808 29.186)"><rect id="Rectángulo_1" data-name="Rectángulo 1" width="1.001" height="8.758" transform="translate(0 0.666) rotate(-41.7)" fill="#1a1718"></rect></g><g id="Grupo_9" data-name="Grupo 9" transform="translate(37.633 24.206)"><g id="Grupo_8" data-name="Grupo 8"><path id="Trazado_6" data-name="Trazado 6" d="M684.1,177.03l.134,1.021a4.54,4.54,0,0,0-2.44.648c-.955.6-1.357,1.346-.968,1.973,1.189,1.911,4.753-1.689,6.42,1.015.773,1.243.174,2.72-1.419,3.71a5,5,0,0,1-3.553.634l-.094-1a4.353,4.353,0,0,0,3.129-.487c1.073-.667,1.471-1.519,1.029-2.23-1.205-1.961-4.743,1.682-6.4-.984-.727-1.168-.166-2.563,1.374-3.521a5.184,5.184,0,0,1,2.788-.776" transform="translate(-679.625 -177.028)" fill="#1a1718"></path></g></g><g id="Grupo_10" data-name="Grupo 10" transform="translate(45.593 19.562)"><path id="Trazado_7" data-name="Trazado 7" d="M692.532,177.587l-1.021,2.309.728,2.171-.95.318-2.784-8.3.95-.319,1.6,4.782,2.858-6.277,1.127-.378-2.078,4.709,5.111,3.513-1.162.39Z" transform="translate(-688.505 -171.888)" fill="#1a1718"></path></g><g id="Grupo_11" data-name="Grupo 11" transform="translate(56.053 20.419)"><path id="Trazado_8" data-name="Trazado 8" d="M701.025,171.888l.237,2.869,4.4-.364.079.96-4.4.364.247,2.993,5.088-.42.079.948-6.086.5-.722-8.73,5.925-.489.078.96Z" transform="translate(-699.948 -170.521)" fill="#1a1718"></path></g><g id="Grupo_13" data-name="Grupo 13" transform="translate(64.918 20.634)"><g id="Grupo_12" data-name="Grupo 12"><path id="Trazado_9" data-name="Trazado 9" d="M713.687,176.234c1.568.256,2.57-.289,2.79-1.636.213-1.308-.568-2.121-2.135-2.377l-2.3-.373-.655,4.011Zm.429,1.021c-.187-.017-.387-.038-.584-.069l-2.3-.375-.445,2.729-.988-.162,1.411-8.642,3.284.535c2.161.353,3.235,1.618,2.934,3.458a2.741,2.741,0,0,1-2.4,2.486l1.545,3.269-1.123-.183Z" transform="translate(-709.802 -170.736)" fill="#1a1718"></path></g></g><g id="Grupo_14" data-name="Grupo 14" transform="translate(76.189 23.989)"><path id="Trazado_10" data-name="Trazado 10" d="M724.777,179.7l-.935,2.063-.615-.278.934-2.064-2.074-.94.3-.661,2.075.94.935-2.064.615.279-.934,2.064,2.063.934-.3.662Z" transform="translate(-722.087 -176.695)" fill="#1a1718"></path></g><g id="Grupo_16" data-name="Grupo 16" transform="translate(82.433 26.593)"><g id="Grupo_15" data-name="Grupo 15"><path id="Trazado_11" data-name="Trazado 11" d="M732.464,184.176l1.745,1.424c1.221,1,2.372,1.033,3.234-.024.839-1.027.559-2.128-.663-3.125l-1.744-1.425Zm4.955-2.448c1.677,1.369,1.966,2.994.787,4.438-1.227,1.5-2.9,1.574-4.578.205l-1.774-1.449-1.748,2.142-.775-.633,5.539-6.784Z" transform="translate(-729.331 -179.647)" fill="#1a1718"></path></g></g><g id="Grupo_17" data-name="Grupo 17" transform="translate(87.768 35.119)"><path id="Trazado_12" data-name="Trazado 12" d="M744.017,190.25l-4.718,1.138,2.381,3.126Zm-5.742,1.383-2.354.565-.644-.846,9.35-2.18.629.826-4.6,8.423-.66-.866,1.171-2.119Z" transform="translate(-735.277 -189.172)" fill="#1a1718"></path></g><g id="Grupo_18" data-name="Grupo 18" transform="translate(92.24 40.839)"><path id="Trazado_13" data-name="Trazado 13" d="M744.293,206.928l6.043-4.856-7.749.417-.368-.957,7.126-5.875.386,1-6.228,4.967,7.931-.5.371.93-6.228,4.968,7.943-.506.372.97-9.231.4Z" transform="translate(-742.219 -195.657)" fill="#1a1718"></path></g><g id="Grupo_19" data-name="Grupo 19"><path id="Trazado_14" data-name="Trazado 14" d="M700.753,274.9a62.761,62.761,0,0,1-57.88-38.3,62.3,62.3,0,0,1,33.6-81.653,62.821,62.821,0,0,1,81.992,33.46l-1.679.7a61,61,0,0,0-79.612-32.49A60.5,60.5,0,0,0,644.551,235.9a61,61,0,0,0,79.613,32.489l.7,1.672A62.556,62.556,0,0,1,700.753,274.9Z" transform="translate(-637.979 -150.102)" fill="#1a1718"></path></g><g id="Grupo_20" data-name="Grupo 20" transform="translate(7.962 7.958)"><path id="Trazado_15" data-name="Trazado 15" d="M680.081,262.39a54.224,54.224,0,0,1-29.848-29.216,53.156,53.156,0,0,1-.16-41.473c11.488-27.648,43.641-40.922,71.674-29.6A54.226,54.226,0,0,1,751.6,191.322a53.145,53.145,0,0,1,.159,41.472l-.835-.336c11.3-27.194-1.939-58.384-29.513-69.529s-59.2,1.914-70.5,29.109a52.272,52.272,0,0,0,.157,40.792,53.329,53.329,0,0,0,29.358,28.736Z" transform="translate(-645.941 -158.06)" fill="#1a1718"></path></g><g id="Grupo_21" data-name="Grupo 21" transform="translate(62.631 71.594)"><path id="Trazado_16" data-name="Trazado 16" d="M706.951,229.778c.122-.377.445-.61.722-.521a.646.646,0,0,1,.281.845c-.122.377-.445.61-.722.521a.645.645,0,0,1-.281-.845" transform="translate(-706.904 -229.238)" fill="#fff"></path></g><g id="Grupo_22" data-name="Grupo 22" transform="translate(61.511 71.579)"><path id="Trazado_17" data-name="Trazado 17" d="M705.967,229.238c.263-.078.581.173.71.561s.021.767-.242.846-.582-.172-.711-.56-.02-.767.243-.847" transform="translate(-705.67 -229.224)" fill="#fff"></path></g><g id="Grupo_23" data-name="Grupo 23" transform="translate(60.722 72.455)"><path id="Trazado_18" data-name="Trazado 18" d="M705.529,231.538c-.251.075-.554-.164-.677-.533s-.021-.729.23-.8.554.164.677.533.02.729-.23.8" transform="translate(-704.799 -230.187)" fill="#fff"></path></g><g id="Grupo_24" data-name="Grupo 24" transform="translate(61.506 72.913)"><path id="Trazado_19" data-name="Trazado 19" d="M707.311,232.546a.887.887,0,0,0-.467-.258l-.054.006a.883.883,0,0,0-.468.256s-.6.311-.6-.414a1.343,1.343,0,0,1,1.071-1.409h.054a1.344,1.344,0,0,1,1.063,1.415c0,.725-.6.4-.6.4" transform="translate(-705.724 -230.727)" fill="#fff"></path></g><g id="Grupo_25" data-name="Grupo 25" transform="translate(63.507 72.487)"><path id="Trazado_20" data-name="Trazado 20" d="M708.817,231.038c-.117.361-.414.588-.664.507s-.36-.439-.243-.8.414-.588.664-.507.36.439.243.8" transform="translate(-707.863 -230.222)" fill="#fff"></path></g></g></g></svg> 