<svg width="22" height="22" viewBox="0 0 22 22" fill="none" xmlns="http://www.w3.org/2000/svg">
<path d="M13.8419 17.7556L14.7586 19.3506C13.8786 19.7539 12.9161 20.0197 11.9169 20.1206V18.2689C12.5952 18.1864 13.2369 18.0122 13.8419 17.7556ZM3.73106 11.9164H1.87939C1.98023 12.9247 2.24606 13.8781 2.64939 14.7581L4.24439 13.8414C3.98773 13.2364 3.81356 12.5947 3.73106 11.9164ZM13.8419 4.24391L14.7586 2.64891C13.8786 2.24557 12.9252 1.97974 11.9169 1.87891V3.73057C12.5952 3.81307 13.2369 3.98724 13.8419 4.24391ZM18.2694 10.0831H20.1211C20.0202 9.07474 19.7544 8.12141 19.3511 7.24141L17.7561 8.15807C18.0127 8.76307 18.1869 9.40474 18.2694 10.0831ZM8.15856 17.7556L7.2419 19.3506C8.12189 19.7539 9.08439 20.0197 10.0836 20.1206V18.2689C9.40523 18.1864 8.76356 18.0122 8.15856 17.7556ZM10.0836 3.73057V1.87891C9.07523 1.97974 8.12189 2.24557 7.2419 2.64891L8.15856 4.24391C8.76356 3.98724 9.40523 3.81307 10.0836 3.73057ZM16.8302 6.57224L18.4252 5.64641C17.8477 4.84891 17.1419 4.14307 16.3444 3.56557L15.4186 5.16057C15.9594 5.57307 16.4269 6.04057 16.8302 6.57224ZM4.24439 8.15807L2.64939 7.24141C2.24606 8.12141 1.98023 9.07474 1.87939 10.0831H3.73106C3.81356 9.40474 3.98773 8.76307 4.24439 8.15807ZM18.2694 11.9164C18.1869 12.5947 18.0127 13.2364 17.7561 13.8414L19.3511 14.7581C19.7544 13.8781 20.0202 12.9156 20.1211 11.9164H18.2694ZM15.4277 16.8297L16.3536 18.4247C17.1511 17.8472 17.8569 17.1414 18.4344 16.3439L16.8394 15.4181C16.4269 15.9589 15.9594 16.4264 15.4277 16.8297ZM6.57273 5.16974L5.65606 3.56557C4.84939 4.15224 4.15273 4.84891 3.57523 5.65557L5.17023 6.58141C5.56872 6.04698 6.04091 5.5717 6.57273 5.16974ZM5.17023 15.4272L3.57523 16.3439C4.15273 17.1414 4.85856 17.8472 5.65606 18.4247L6.58189 16.8297C6.04747 16.4313 5.57219 15.9591 5.17023 15.4272ZM11.0002 6.41641C10.4961 6.41641 10.0836 6.82891 10.0836 7.33307V10.6239C10.0836 11.1097 10.2761 11.5772 10.6244 11.9164L13.3744 14.6664C13.5458 14.8378 13.7783 14.9341 14.0206 14.9341C14.263 14.9341 14.4955 14.8378 14.6669 14.6664C14.8383 14.495 14.9346 14.2625 14.9346 14.0202C14.9346 13.7778 14.8383 13.5453 14.6669 13.3739L11.9169 10.6239V7.33307C11.9169 6.82891 11.5044 6.41641 11.0002 6.41641Z" fill="#70C2AC"/>
</svg>
