<svg width="62" height="62" viewBox="0 0 62 62" fill="none" xmlns="http://www.w3.org/2000/svg">
<circle cx="30.6742" cy="30.6742" r="30.6742" fill="#B7E2D3"/>
<path d="M41.8529 32.8031L41.8592 32.8062C41.9561 32.2156 42.0029 31.6125 42.0029 31.0156C42.0029 30.4812 41.9623 29.9437 41.8873 29.4187C41.9623 29.9406 41.9998 30.4687 41.9998 30.9969C41.9998 31.6031 41.9498 32.2094 41.8529 32.8031ZM18.0936 27.4406C18.0779 27.4281 18.0654 27.4156 18.0498 27.4C18.0717 27.4219 18.0936 27.4437 18.1186 27.4656L20.1654 29.2125V29.2094L18.0936 27.4406ZM34.8623 20.6906H34.8654L34.3811 18.0719C34.3748 18.0406 34.3686 18.0125 34.3592 17.9844C34.3623 18 34.3686 18.0187 34.3717 18.0344L34.8623 20.6906ZM36.5498 37.7687L37.5311 36.9625L40.4311 37.9906C40.9623 37.275 41.4092 36.5062 41.7623 35.6906L39.4279 33.6937L39.6342 32.4406C39.7123 31.9687 39.7529 31.4844 39.7529 31C39.7529 30.5156 39.7123 30.0312 39.6342 29.5594L39.4311 28.3125L41.7654 26.3156C41.4092 25.5031 40.9654 24.7312 40.4342 24.0156L37.5342 25.0437L36.5529 24.2375C35.8061 23.625 34.9717 23.1437 34.0748 22.8062L32.8842 22.3594L32.3248 19.3281C31.4422 19.2281 30.5511 19.2281 29.6686 19.3281L29.1092 22.3656L27.9248 22.8125C27.0342 23.15 26.2061 23.6313 25.4654 24.2406L24.4842 25.05L21.5654 24.0125C21.0342 24.7281 20.5873 25.4969 20.2342 26.3125L22.5936 28.3281L22.3904 29.5781C22.3123 30.0437 22.2748 30.5219 22.2748 31C22.2748 31.475 22.3154 31.9562 22.3904 32.4219L22.5936 33.6719L20.2342 35.6875C20.5904 36.5 21.0342 37.2719 21.5654 37.9875L24.4842 36.95L25.4654 37.7594C26.2061 38.3687 27.0342 38.85 27.9248 39.1875L29.1061 39.6406L29.6654 42.6781C30.5467 42.7781 31.4436 42.7781 32.3217 42.6781L32.8811 39.6469L34.0717 39.2C34.9717 38.8625 35.8029 38.3812 36.5498 37.7687V37.7687ZM31.0154 36.1969C30.0623 36.1969 29.1654 35.9531 28.3811 35.525C26.6654 34.5937 25.4998 32.7781 25.4998 30.6875C25.4998 27.65 27.9623 25.1875 30.9998 25.1875C33.0904 25.1875 34.9061 26.3531 35.8373 28.0687C36.2654 28.85 36.5092 29.7469 36.5092 30.7031C36.5092 33.7375 34.0498 36.1969 31.0154 36.1969V36.1969ZM21.4748 40.4C21.3029 40.4594 21.1248 40.4719 20.9561 40.4375C21.1342 40.475 21.3217 40.4687 21.5029 40.4062L24.0467 39.5C24.0436 39.4969 24.0373 39.4937 24.0342 39.4906L21.4748 40.4V40.4ZM43.8998 27.4406L41.8529 29.1906C41.8529 29.1969 41.8561 29.2062 41.8561 29.2125L43.8998 27.4656C44.1217 27.275 44.2467 27 44.2498 26.7156C44.2404 26.9906 44.1154 27.2562 43.8998 27.4406Z" fill="#70C2AC"/>
<path d="M44.2439 35.2061C44.2595 35.3529 44.2438 35.5029 44.1907 35.6467L44.1626 35.7279C43.5977 37.3022 42.754 38.7619 41.672 40.0373L41.6157 40.1029C41.4846 40.2579 41.3095 40.3693 41.1136 40.4223C40.9176 40.4753 40.7102 40.4675 40.5188 40.3998L37.9782 39.4967C37.0462 40.2646 35.9934 40.8728 34.8626 41.2967L34.372 43.9529C34.335 44.1528 34.238 44.3367 34.094 44.4801C33.95 44.6236 33.7657 44.7198 33.5657 44.7561L33.4813 44.7717C32.6646 44.9193 31.8363 44.9936 31.0063 44.9936H31.0157C31.8501 44.9936 32.6845 44.9186 33.497 44.7717L33.5813 44.7561C33.7814 44.7198 33.9656 44.6236 34.1096 44.4801C34.2536 44.3367 34.3506 44.1528 34.3876 43.9529L34.8782 41.2998C36.0095 40.8748 37.0532 40.2717 37.9907 39.5029L40.5282 40.4061C40.7196 40.4737 40.927 40.4816 41.1229 40.4286C41.3189 40.3755 41.494 40.2641 41.6251 40.1092L41.6813 40.0436C42.7688 38.7592 43.6032 37.3123 44.1689 35.7404L44.197 35.6592C44.247 35.5123 44.2626 35.3561 44.2439 35.2061V35.2061Z" fill="black" fill-opacity="0.15"/>
<path d="M36.5 30.6875C36.5 29.7406 36.2594 28.8469 35.8375 28.0688C34.9062 26.3531 33.0906 25.1875 31 25.1875C27.9625 25.1875 25.5 27.65 25.5 30.6875C25.5 32.7781 26.6656 34.5937 28.3813 35.525C29.1594 35.9469 30.05 36.1875 31 36.1875C34.0375 36.1875 36.5 33.725 36.5 30.6875ZM27.5 30.6875C27.5 29.7531 27.8656 28.875 28.525 28.2125C29.1875 27.55 30.0656 27.1875 31 27.1875C31.9344 27.1875 32.8125 27.55 33.475 28.2125C33.8006 28.5371 34.0587 28.9229 34.2346 29.3477C34.4105 29.7724 34.5007 30.2278 34.5 30.6875C34.5 31.6219 34.1344 32.5 33.475 33.1625C33.1504 33.4881 32.7646 33.7462 32.3398 33.9221C31.9151 34.098 31.4597 34.1882 31 34.1875C30.0656 34.1875 29.1875 33.8219 28.525 33.1625C28.1994 32.8379 27.9413 32.4521 27.7654 32.0273C27.5895 31.6026 27.4993 31.1472 27.5 30.6875V30.6875Z" fill="#FFC107"/>
<path d="M33.5655 44.7561C33.7655 44.7198 33.9498 44.6236 34.0938 44.4801C34.2378 44.3367 34.3348 44.1528 34.3718 43.9529L34.8624 41.2967C35.9932 40.8728 37.046 40.2646 37.978 39.4967L40.5187 40.3998C40.71 40.4675 40.9174 40.4753 41.1134 40.4223C41.3093 40.3693 41.4844 40.2579 41.6155 40.1029L41.6718 40.0373C42.7593 38.7529 43.5968 37.3029 44.1624 35.7279L44.1905 35.6467C44.2437 35.5029 44.2593 35.3529 44.2437 35.2061C44.2155 34.9592 44.0968 34.7248 43.8999 34.5529L41.8593 32.8061L41.853 32.8029C41.9499 32.2092 41.9999 31.6029 41.9999 30.9967C41.9999 30.4686 41.9624 29.9373 41.8874 29.4186C41.878 29.3498 41.8655 29.2811 41.8562 29.2123C41.8562 29.2061 41.853 29.1967 41.853 29.1904L43.8999 27.4404C44.1155 27.2561 44.2405 26.9904 44.2499 26.7154C44.253 26.5904 44.2343 26.4623 44.1905 26.3404L44.1624 26.2592C43.5989 24.6843 42.7551 23.2243 41.6718 21.9498L41.6155 21.8842C41.4841 21.7297 41.309 21.6186 41.1132 21.5656C40.9173 21.5126 40.7101 21.5202 40.5187 21.5873L37.978 22.4904C37.0405 21.7217 35.9968 21.1154 34.8655 20.6904H34.8624L34.3718 18.0342C34.3687 18.0186 34.3655 17.9998 34.3593 17.9842C34.3142 17.7952 34.2151 17.6235 34.0742 17.4898C33.9333 17.3561 33.7566 17.2662 33.5655 17.2311L33.4812 17.2154C31.853 16.9217 30.1405 16.9217 28.5124 17.2154L28.428 17.2311C28.228 17.2673 28.0438 17.3635 27.8998 17.507C27.7558 17.6504 27.6588 17.8343 27.6218 18.0342L27.128 20.7029C26.0058 21.128 24.9607 21.7339 24.0343 22.4967L21.4749 21.5873C21.2836 21.5196 21.0761 21.5118 20.8802 21.5648C20.6843 21.6178 20.5091 21.7292 20.378 21.8842L20.3218 21.9498C19.2397 23.2252 18.3961 24.6849 17.8312 26.2592L17.803 26.3404C17.7379 26.522 17.7266 26.7186 17.7704 26.9065C17.8141 27.0944 17.9112 27.2657 18.0499 27.3998C18.0655 27.4123 18.078 27.4279 18.0937 27.4404L20.1655 29.2092V29.2123C20.0687 29.7998 20.0218 30.3967 20.0218 30.9936C20.0218 31.5936 20.0687 32.1936 20.1655 32.7779L18.0937 34.5467C17.9393 34.6789 17.8288 34.8549 17.7769 35.0514C17.7249 35.2479 17.7341 35.4555 17.803 35.6467L17.8312 35.7279C18.3968 37.3029 19.2343 38.7561 20.3218 40.0373L20.378 40.1029C20.5312 40.2811 20.7343 40.3967 20.9562 40.4373C21.1249 40.4686 21.303 40.4592 21.4749 40.3998L24.0343 39.4904C24.0374 39.4936 24.0437 39.4967 24.0468 39.4998C24.9749 40.2592 26.0093 40.8623 27.128 41.2842L27.6218 43.9529C27.6588 44.1528 27.7558 44.3367 27.8998 44.4801C28.0438 44.6236 28.228 44.7198 28.428 44.7561L28.5124 44.7717C29.328 44.9186 30.1624 44.9936 30.9968 44.9936H31.0062C31.8374 44.9936 32.6718 44.9186 33.4812 44.7717L33.5655 44.7561V44.7561ZM32.3218 42.6779C31.4392 42.7779 30.5481 42.7779 29.6655 42.6779L29.1062 39.6404L27.9249 39.1873C27.0343 38.8498 26.2062 38.3686 25.4655 37.7592L24.4843 36.9498L21.5655 37.9873C21.0343 37.2717 20.5905 36.4998 20.2343 35.6873L22.5937 33.6717L22.3905 32.4217C22.3155 31.9561 22.2749 31.4748 22.2749 30.9998C22.2749 30.5217 22.3124 30.0436 22.3905 29.5779L22.5937 28.3279L20.2343 26.3123C20.5874 25.4967 21.0343 24.7279 21.5655 24.0123L24.4843 25.0498L25.4655 24.2404C26.2062 23.6311 27.0343 23.1498 27.9249 22.8123L29.1093 22.3654L29.6687 19.3279C30.5468 19.2279 31.4437 19.2279 32.3249 19.3279L32.8843 22.3592L34.0749 22.8061C34.9718 23.1436 35.8062 23.6248 36.553 24.2373L37.5343 25.0436L40.4343 24.0154C40.9655 24.7311 41.4093 25.5029 41.7655 26.3154L39.4312 28.3123L39.6343 29.5592C39.7124 30.0311 39.753 30.5154 39.753 30.9998C39.753 31.4842 39.7124 31.9686 39.6343 32.4404L39.428 33.6936L41.7624 35.6904C41.4085 36.5057 40.9618 37.2775 40.4312 37.9904L37.5312 36.9623L36.5499 37.7686C35.803 38.3811 34.9718 38.8623 34.0718 39.1998L32.8812 39.6467L32.3218 42.6779V42.6779Z" fill="#1A1718"/>
</svg>
