<svg width="37" height="37" viewBox="0 0 37 37" fill="none" xmlns="http://www.w3.org/2000/svg">
<circle cx="18.5" cy="18.5" r="18.5" fill="#B7E2D3"/>
<path d="M14.2498 19.2087C15.2278 19.2087 16.0207 18.4158 16.0207 17.4378C16.0207 16.4598 15.2278 15.667 14.2498 15.667C13.2718 15.667 12.479 16.4598 12.479 17.4378C12.479 18.4158 13.2718 19.2087 14.2498 19.2087Z" fill="#FFA726"/>
<path d="M10.7085 22.2898C10.7085 22.2898 11.7002 20.0586 14.2502 20.0586C16.8002 20.0586 17.7918 22.2898 17.7918 22.2898V23.4586H10.7085V22.2898Z" fill="#455A64"/>
<path d="M26.2918 22.2898C26.2918 22.2898 25.3002 20.0586 22.7502 20.0586C20.2002 20.0586 19.2085 22.2898 19.2085 22.2898V23.4586H26.2918V22.2898Z" fill="#455A64"/>
<path d="M18.5 18.1455C19.6736 18.1455 20.625 17.1941 20.625 16.0205C20.625 14.8469 19.6736 13.8955 18.5 13.8955C17.3264 13.8955 16.375 14.8469 16.375 16.0205C16.375 17.1941 17.3264 18.1455 18.5 18.1455Z" fill="#FFB74D"/>
<path d="M22.75 22.0771C22.75 22.0771 21.5812 19.4209 18.5 19.4209C15.4188 19.4209 14.25 22.0771 14.25 22.0771V23.4584H22.75V22.0771Z" fill="#607D8B"/>
<path d="M22.7498 19.2087C23.7278 19.2087 24.5207 18.4158 24.5207 17.4378C24.5207 16.4598 23.7278 15.667 22.7498 15.667C21.7718 15.667 20.979 16.4598 20.979 17.4378C20.979 18.4158 21.7718 19.2087 22.7498 19.2087Z" fill="#FFA726"/>
<path d="M14.2498 19.2087C15.2278 19.2087 16.0207 18.4158 16.0207 17.4378C16.0207 16.4598 15.2278 15.667 14.2498 15.667C13.2718 15.667 12.479 16.4598 12.479 17.4378C12.479 18.4158 13.2718 19.2087 14.2498 19.2087Z" fill="#70C2AC"/>
<path d="M22.7498 19.2087C23.7278 19.2087 24.5207 18.4158 24.5207 17.4378C24.5207 16.4598 23.7278 15.667 22.7498 15.667C21.7718 15.667 20.979 16.4598 20.979 17.4378C20.979 18.4158 21.7718 19.2087 22.7498 19.2087Z" fill="#70C2AC"/>
</svg>
