<svg width="308" height="247" viewBox="0 0 308 247" fill="none" xmlns="http://www.w3.org/2000/svg">
<path d="M266.774 122.036C266.774 154.311 253.965 185.264 231.165 208.086C208.364 230.908 177.44 243.729 145.196 243.729C112.951 243.729 82.0272 230.908 59.2269 208.086C36.4265 185.264 23.6174 154.311 23.6174 122.036C23.6174 89.7604 36.4265 58.8071 59.2269 35.9851C82.0272 13.1631 112.951 0.341797 145.196 0.341797C177.44 0.341797 208.364 13.1631 231.165 35.9851C253.965 58.8071 266.774 89.7604 266.774 122.036Z" fill="#B7E2D3"/>
<path opacity="0.4" d="M307.373 230.788C307.373 232.917 303.405 235.025 295.694 236.992C287.984 238.959 276.683 240.746 262.436 242.252C248.189 243.757 231.275 244.951 212.661 245.766C194.047 246.58 174.096 247 153.948 247C133.799 247 113.849 246.58 95.2342 245.766C76.6198 244.951 59.7063 243.757 45.4595 242.252C31.2126 240.746 19.9114 238.959 12.201 236.992C4.49068 235.025 0.522217 232.917 0.522217 230.788C0.522216 228.66 4.49068 226.551 12.201 224.585C19.9114 222.618 31.2126 220.831 45.4595 219.325C59.7063 217.82 76.6198 216.626 95.2342 215.811C113.849 214.996 133.799 214.577 153.948 214.577C174.096 214.577 194.047 214.996 212.661 215.811C231.275 216.626 248.189 217.82 262.436 219.325C276.683 220.831 287.984 222.618 295.694 224.585C303.405 226.551 307.373 228.66 307.373 230.788Z" fill="#99AFBF"/>
<path d="M127.257 104.66C127.257 104.66 124.134 102.152 122.791 103.678C121.483 105.169 126.749 112.256 129.472 111.675C132.196 111.057 127.257 104.66 127.257 104.66Z" fill="#E5B691"/>
<path d="M54.9929 141.663C54.9929 141.663 33.7494 134.793 26.6682 122.035C26.6682 122.035 23.9447 132.758 26.6682 136.829C29.3917 140.9 30.808 140.682 30.808 140.682C30.808 140.682 29.1739 141.481 26.5593 141.7C26.5593 141.7 31.4253 148.097 35.3472 147.588L32.9142 149.514C32.9142 149.514 36.5455 154.167 42.6099 153.367C48.7106 152.495 54.9929 141.663 54.9929 141.663Z" fill="#DBCFBA"/>
<path d="M206.566 206.872L214.41 201.42L262.816 231.952C262.816 231.952 264.777 238.786 261.908 238.786C259.04 238.786 206.566 238.786 206.566 238.786V206.872Z" fill="#B76767"/>
<path d="M265.794 233.114L212.885 200.401C212.667 200.255 212.376 200.292 212.231 200.51L209.508 203.527C209.29 203.781 209.362 204.145 209.617 204.326L263.506 237.403C263.76 237.549 264.124 237.476 264.269 237.221C264.959 236.022 265.649 234.604 266.012 233.914C266.157 233.623 266.048 233.296 265.794 233.114Z" fill="#DBCFBA"/>
<path d="M180.529 208.653C179.258 208.726 178.205 207.635 178.387 206.327L182.49 176.885L149.517 191.86V229.662C149.517 234.678 153.584 238.713 158.559 238.713H206.566V206.799L180.529 208.653Z" fill="#3E5862"/>
<path d="M196.979 208.653C195.708 208.726 194.655 207.635 194.837 206.327L198.94 176.885L165.968 191.86V229.662C165.968 234.678 170.035 238.713 175.01 238.713H223.016V206.799L196.979 208.653Z" fill="#267587"/>
<path d="M223.017 206.872L230.86 201.42L279.267 231.952C279.267 231.952 281.227 238.786 278.359 238.786C275.49 238.786 223.017 238.786 223.017 238.786V206.872Z" fill="#B76767"/>
<path d="M132.523 113.312L109.318 131.994L120.902 149.333L154.238 126.07L142.291 114.075L132.523 113.312Z" fill="#DC9E35"/>
<path d="M164.116 97.9348L150.68 70.3828L117.017 86.8486L130.453 114.401C133.503 120.616 140.984 123.197 147.194 120.144L158.378 114.655C164.588 111.638 167.166 104.15 164.116 97.9348Z" fill="#E5B691"/>
<path d="M120.539 87.2858C120.539 87.2858 133.067 89.394 139.132 87.7583C145.196 86.1226 147.811 84.5233 147.811 84.5233L142.11 82.815L154.638 82.4151L159.177 87.7583L163.208 96.0457C163.208 96.0457 166.113 90.9933 163.97 80.8158C161.828 70.6383 156.998 60.17 156.998 60.17C156.998 60.17 148.501 57.8801 138.95 59.5158C129.4 61.1514 112.369 65.9131 113.059 78.7803C113.059 78.7803 110.771 85.5411 113.24 90.5208C115.709 95.5005 126.495 106.26 126.495 106.26C126.495 106.26 118.651 90.339 120.539 87.2858Z" fill="black"/>
<path d="M166.04 92.4476C166.04 92.4476 167.638 85.4324 164.37 83.1788C161.356 81.0706 159.831 89.1036 159.831 89.1036L163.208 96.0097C163.208 96.0461 165.75 94.3741 166.04 92.4476Z" fill="#E5B691"/>
<path d="M158.632 190.043L183.979 185.39L197.815 190.152C197.815 190.152 203.008 182.955 204.424 171.214C205.84 159.474 184.815 115.929 184.815 115.929L151.043 161.582L158.632 190.043Z" fill="#EAA94E"/>
<path d="M130.562 185.426L123.263 203.018L132.958 238.749H155.001C155.001 238.749 156.453 231.915 151.624 227.953L141.165 229.625L135.246 207.017L150.099 191.678L130.562 185.426Z" fill="#BCAF9B"/>
<path d="M95.8097 170.27H52.9958C54.7389 175.431 57.1356 182.955 58.0071 187.826C59.4233 195.822 44.571 214.542 44.571 214.542L57.2808 238.75H79.9043C80.921 229.844 75.4377 228.136 75.4377 228.136C75.4377 228.136 67.9571 230.971 65.3062 230.862C62.6916 230.753 58.6244 221.302 58.6244 221.302L67.8118 208.399C67.8118 208.399 78.1249 204.946 84.0803 201.02C90.0358 197.058 92.2872 180.629 92.2872 180.629L95.8097 170.27Z" fill="#BCAF9B"/>
<path d="M187.611 172.45C186.703 172.668 163.317 184.808 163.317 184.808L161.102 174.085C161.102 174.085 161.32 162.527 163.135 152.931C164.951 143.299 175.772 129.05 175.772 129.05C175.772 129.05 179.113 129.159 182.055 126.724C184.996 124.288 192.186 116.692 192.186 116.692C192.186 116.692 193.384 122.253 195.019 121.453C196.653 120.654 200.829 111.385 200.829 111.385C200.829 111.385 200.211 115.492 201.119 116.401C202.027 117.31 208.854 105.787 208.564 100.771C208.273 95.755 204.024 84.5234 204.024 84.5234L183.979 90.5936C180.021 90.8117 177.697 88.1583 177.116 87.9765C171.56 85.9774 154.856 93.5378 153.948 94.5555C153.04 95.5733 149.808 105.787 148.9 108.622C147.992 111.457 134.52 131.013 127.257 134.757C119.958 138.501 80.8121 137.992 80.8121 137.992C80.8121 137.992 67.7754 137.192 55.9372 139.409C44.0989 141.626 36.5093 164.708 36.5093 164.708C36.5093 164.708 42.0653 179.901 43.4816 187.898C44.5347 193.786 36.7272 205.49 32.5512 211.27C31.026 213.378 30.8081 216.177 32.0428 218.503L42.719 238.858H65.3424C66.3592 229.953 60.8758 228.244 60.8758 228.244C60.8758 228.244 53.3952 231.079 50.7443 230.97C48.1297 230.861 44.0626 221.411 44.0626 221.411L53.2863 208.507C53.2863 208.507 63.5994 205.054 69.5548 201.129C75.5103 197.167 79.9768 185.426 79.9768 185.426C79.9768 185.426 88.5832 183.1 96.0638 183.79C103.544 184.481 115.092 190.987 115.092 190.987L139.677 190.079L148.464 205.599C149.663 207.744 152.423 208.398 154.456 207.09L184.814 187.462C184.814 187.462 183.834 190.406 185.977 191.932C188.119 193.459 191.133 196.403 191.133 196.403L189.317 201.165C189.317 201.165 193.348 205.127 196.689 203.891C200.03 202.655 202.971 197.094 202.971 197.094L194.474 175.721C194.474 175.576 188.518 172.268 187.611 172.45Z" fill="#DBCFBA"/>
<path d="M161.791 162.89C162.082 159.692 162.518 156.202 163.135 152.931C163.317 151.95 163.607 150.895 163.97 149.841C151.515 144.498 133.322 136.792 127.766 134.43C127.584 134.539 127.402 134.648 127.257 134.72C127.076 134.83 126.821 134.902 126.567 135.011C127.439 137.01 129.545 140.9 133.503 143.226C139.059 146.461 142.981 146.897 142.981 146.897L140.875 150.932C140.838 150.895 151.624 158.42 161.791 162.89Z" fill="#BAAB93"/>
<path d="M154.238 131.667C154.238 131.667 150.098 127.014 148.355 125.706C146.648 124.397 140.33 121.453 140.33 121.453C140.33 121.453 139.277 124.179 140.33 125.379C140.33 125.379 136.117 123.561 135.827 123.561C135.536 123.561 124.606 132.685 124.606 132.685C124.606 132.685 130.779 140.391 135.536 142.608C140.293 144.825 144.288 144.68 144.288 144.68H147.665L154.238 131.667Z" fill="#E5B691"/>
<path d="M142.291 147.951L153.839 128.723L170.398 136.974L175.772 129.05C175.772 129.05 179.839 129.886 188.591 120.399C188.591 120.399 194.002 160.746 188.591 165.398C183.144 170.015 142.291 147.951 142.291 147.951Z" fill="#DC9E35"/>
<path d="M116.871 144.753L113.276 133.667C112.659 131.813 110.952 130.577 108.991 130.577H96.6083C94.6111 130.577 92.8317 131.886 92.287 133.812L89.1277 144.753C88.8372 145.734 89.3456 146.861 90.326 147.152C91.3428 147.479 92.3596 146.934 92.7228 145.989L94.8653 140.137L94.4658 146.098C94.3932 147.188 95.2647 148.133 96.3541 148.133H98.6056C99.4771 148.133 100.24 147.515 100.458 146.679L102.201 139.337L102.237 146.243C102.237 147.297 103.072 148.133 104.125 148.133H106.449C107.502 148.133 108.374 147.261 108.338 146.207L108.265 139.01L110.371 146.062C110.625 146.898 111.424 147.479 112.332 147.406L115.274 147.188C116.436 147.116 117.235 145.916 116.871 144.753Z" fill="#E5B691"/>
<path d="M165.459 97.0994C165.096 94.2279 162.155 92.4468 159.468 93.4646L157.361 94.2279C156.018 94.7004 155.001 95.7909 154.602 97.1721L153.294 101.534C152.895 102.806 153.113 104.224 153.875 105.314C156.308 108.985 161.973 116.655 164.661 113.82C166.839 111.493 166.222 102.879 165.459 97.0994Z" fill="#EFE3D0"/>
<path d="M203.988 84.4512L199.231 85.9051C200.502 87.25 203.698 90.3032 206.276 91.0665C205.15 87.4681 203.988 84.4512 203.988 84.4512Z" fill="#494032"/>
<path d="M181.728 95.174C181.728 95.7042 181.517 96.2127 181.143 96.5876C180.768 96.9625 180.26 97.1731 179.73 97.1731C179.201 97.1731 178.693 96.9625 178.318 96.5876C177.944 96.2127 177.733 95.7042 177.733 95.174C177.733 94.6437 177.944 94.1353 178.318 93.7603C178.693 93.3854 179.201 93.1748 179.73 93.1748C180.26 93.1748 180.768 93.3854 181.143 93.7603C181.517 94.1353 181.728 94.6437 181.728 95.174Z" fill="#494032"/>
<path d="M134.919 105.206C133.575 105.788 132.159 105.679 131.288 104.952C131.07 104.77 131.034 104.443 131.215 104.225C131.397 104.007 131.724 103.97 131.941 104.152C132.486 104.624 133.539 104.661 134.52 104.261C135.536 103.825 136.263 102.989 136.263 102.262C136.263 101.971 136.481 101.753 136.771 101.753C137.062 101.753 137.279 101.971 137.279 102.262C137.243 103.425 136.299 104.624 134.919 105.206Z" fill="#35393C"/>
<path d="M151.478 98.2267C152.822 97.6451 153.73 96.5547 153.839 95.4642C153.875 95.1734 153.657 94.919 153.367 94.919C153.076 94.8827 152.822 95.1007 152.822 95.3915C152.786 96.1185 152.059 96.9182 151.115 97.318C150.098 97.7542 149.009 97.6815 148.464 97.1726C148.246 96.9909 147.92 96.9909 147.738 97.1726C147.556 97.3907 147.556 97.6815 147.738 97.8996C148.573 98.6629 150.062 98.8083 151.478 98.2267Z" fill="#35393C"/>
<path d="M130.562 95.973C127.62 96.4819 126.567 99.3534 126.168 101.134C126.095 101.462 126.494 101.716 126.64 101.462C127.33 100.407 128.528 98.8445 129.981 97.9721C131.615 96.9907 134.738 97.3906 136.444 97.7541C136.735 97.8268 136.808 97.3542 136.553 97.1725C135.355 96.4092 133.249 95.5005 130.562 95.973Z" fill="#8C3A3A"/>
<path d="M154.928 89.0307C153.403 88.0493 150.607 86.8134 148.174 88.5582C145.959 90.1575 145.123 92.302 144.833 93.6832C144.76 94.0104 145.16 94.2648 145.305 94.0104C146.249 92.5201 148.138 89.9757 149.99 89.5396C151.624 89.1397 153.548 89.3578 154.819 89.6123C155.11 89.6486 155.182 89.1761 154.928 89.0307Z" fill="#8C3A3A"/>
<path opacity="0.5" d="M148.755 104.152C148.573 103.679 148.029 103.389 147.375 103.279L143.853 98.6269C143.489 98.1544 142.872 98.009 142.327 98.2271C141.71 98.5179 141.42 99.2085 141.674 99.8627L143.09 103.389C143.308 103.897 143.126 104.479 142.727 104.842C141.892 105.569 141.492 106.405 141.783 107.096C142.218 108.15 144.143 108.332 146.068 107.532C147.956 106.696 149.191 105.17 148.755 104.152Z" fill="#FCF2EB"/>
<path d="M189.044 219.887L169.075 215.318L189.044 219.887Z" fill="#DC9E35"/>
<path d="M158.235 151.355L191.897 142.218L158.235 151.355Z" fill="#DC9E35"/>
<path d="M282.171 233.116L229.262 200.403C229.044 200.257 228.754 200.294 228.609 200.512L225.885 203.529C225.667 203.783 225.74 204.147 225.994 204.328L279.884 237.405C280.138 237.551 280.501 237.478 280.646 237.223C281.336 236.024 282.026 234.606 282.389 233.916C282.534 233.625 282.426 233.298 282.171 233.116Z" fill="#DBCFBA"/>
<path d="M255.989 231.48C255.372 231.443 254.864 231.879 254.827 232.461L254.319 238.786C255.045 238.786 255.771 238.786 256.498 238.786L257.006 232.643C257.042 232.025 256.57 231.516 255.989 231.48Z" fill="#8C3A3A"/>
<path d="M236.743 231.48C236.125 231.443 235.617 231.879 235.581 232.461L235.072 238.786C235.799 238.786 236.525 238.786 237.251 238.786L237.76 232.643C237.796 232.025 237.324 231.516 236.743 231.48Z" fill="#8C3A3A"/>
<path d="M241.536 231.48C240.919 231.443 240.41 231.879 240.374 232.461L239.866 238.786C240.592 238.786 241.318 238.786 242.045 238.786L242.553 232.643C242.589 232.025 242.154 231.516 241.536 231.48Z" fill="#8C3A3A"/>
<path d="M251.159 231.48C250.542 231.443 250.033 231.879 249.997 232.461L249.489 238.786C250.215 238.786 250.941 238.786 251.668 238.786L252.176 232.643C252.212 232.025 251.777 231.516 251.159 231.48Z" fill="#8C3A3A"/>
<path d="M246.366 231.48C245.749 231.443 245.24 231.879 245.204 232.461L244.696 238.786C245.422 238.786 246.148 238.786 246.874 238.786L247.383 232.643C247.419 232.025 246.947 231.516 246.366 231.48Z" fill="#8C3A3A"/>
</svg>
